<svg xmlns="http://www.w3.org/2000/svg" width="212" height="95.58234327359129" viewBox="0 0 212 95.58234327359129" class="editor-view__logo-preview" data-v-8d8ae3dd="" data-v-b9d2a614=""><svg id="mark" viewBox="0 0 100 100" width="54" height="54" x="79" y="0" data-v-8d8ae3dd="" style="fill: rgba(0, 0, 0, 0);"><rect x="0" y="0" width="100%" height="100%" fill="none" data-v-8d8ae3dd=""></rect><g data-v-8d8ae3dd=""><path xmlns="http://www.w3.org/2000/svg" d="M81.944-0.5c-1.534,0-2.777,1.244-2.777,2.778v18.056c0,1.534,1.243,2.778,2.777,2.778H100V-0.5H81.944z"></path><rect xmlns="http://www.w3.org/2000/svg" x="2.777" y="85.611" width="94.444" height="13.889"></rect><path xmlns="http://www.w3.org/2000/svg" d="M69.446,28.667h-0.002h-1.611L53.042,39.233c-1.827,1.354-3.436,2.01-4.916,2.01c-1.872,0-3.428-1.058-4.162-2.83  c-1.003-2.423-0.328-6.224,1.411-8.061c0.171-0.197,0.716-0.82,1.477-1.686h-6.573h-3.854h-5.867V62h38.89V28.667z M38.031,59.584  l-1.289-0.941l-1.291,0.941l0.492-1.525l-1.29-0.941h1.59l0.499-1.518l0.492,1.518h1.59l-1.291,0.942L38.031,59.584z M39.585,52.928  l-1.29-0.939l-1.291,0.939l0.493-1.523l-1.291-0.941h1.596l0.492-1.525l0.491,1.525h1.596l-1.29,0.941L39.585,52.928z   M44.458,47.859l-1.291-0.94l-1.29,0.94l0.492-1.519l-1.291-0.94h1.598l0.491-1.525l0.492,1.525h1.59l-1.284,0.94L44.458,47.859z   M51.272,46.135l-1.289-0.946l-1.29,0.946l0.493-1.525l-1.291-0.935l1.596-0.005l0.492-1.525l0.498,1.525h1.589l-1.29,0.94  L51.272,46.135z M57.747,47.859l-1.284-0.94l-1.29,0.94l0.491-1.519l-1.289-0.94h1.591l0.498-1.525l0.491,1.525h1.589l-1.289,0.94  L57.747,47.859z M59.393,50.229l1.595-0.006l0.492-1.52l0.498,1.52h1.589l-1.29,0.945l0.492,1.525l-1.289-0.94l-1.289,0.94  l0.496-1.525L59.393,50.229z M64.509,59.492l-1.283-0.939l-1.296,0.939l0.497-1.523l-1.29-0.941h1.591l0.498-1.525l0.492,1.525  h1.588l-1.283,0.941L64.509,59.492z"></path><polygon xmlns="http://www.w3.org/2000/svg" points="72.223,49.501 72.223,57.835 77.092,57.835 79.167,64.777 50,64.777 20.833,64.777 22.907,57.835 27.777,57.835   27.777,49.501 11.111,49.501 0,74.5 0,82.833 100,82.833 100,74.5 88.889,49.501 "></polygon><path xmlns="http://www.w3.org/2000/svg" d="M49.999,20.333c1.389-2.778,11.052-2.718,6.944,1.389l-9.805,10.864C45.994,33.731,45.08,41.69,51.387,37l19.444-13.889  l1.39-4.167l4.166-4.167V2.278H62.5l-13.889,8.333c-2.535,1.64-4.167,2.777-5.557,6.944c-0.693,2.083-2.777,8.333-2.777,8.333h7.812  L49.999,20.333z"></path></g></svg><svg id="name" viewBox="0 0 212.5659942626953 33.672000885009766" width="212" height="33.58234327359129" x="0" y="62" data-v-8d8ae3dd="" style="fill: rgba(0, 0, 0, 0);"><rect x="0" y="0" width="100%" height="100%" fill="none" data-v-8d8ae3dd=""></rect><g data-v-8d8ae3dd=""><path xmlns="http://www.w3.org/2000/svg" d="M10.67 33.67L10.67 33.67Q7.64 33.67 5.34 32.68Q3.04 31.69 1.66 29.95Q0.28 28.20 0 25.90L0 25.90L5.93 25.90Q6.21 27.23 7.43 28.17Q8.65 29.12 10.58 29.12L10.58 29.12Q12.51 29.12 13.41 28.34Q14.31 27.55 14.31 26.54L14.31 26.54Q14.31 25.07 13.02 24.54Q11.73 24.01 9.43 23.51L9.43 23.51Q7.96 23.18 6.44 22.72Q4.92 22.26 3.66 21.55Q2.39 20.84 1.61 19.71Q0.83 18.58 0.83 16.93L0.83 16.93Q0.83 13.89 3.24 11.82Q5.66 9.75 10.03 9.75L10.03 9.75Q14.08 9.75 16.49 11.64Q18.91 13.52 19.37 16.84L19.37 16.84L13.80 16.84Q13.29 14.31 9.98 14.31L9.98 14.31Q8.33 14.31 7.43 14.95Q6.53 15.59 6.53 16.56L6.53 16.56Q6.53 17.57 7.87 18.17Q9.20 18.77 11.41 19.27L11.41 19.27Q13.80 19.83 15.80 20.49Q17.80 21.16 19.00 22.47Q20.19 23.78 20.19 26.22L20.19 26.22Q20.24 28.34 19.09 30.04Q17.94 31.74 15.78 32.71Q13.62 33.67 10.67 33.67ZM36.48 33.67L36.48 33.67Q33.03 33.67 30.36 32.20Q27.69 30.73 26.17 28.06Q24.66 25.39 24.66 21.90L24.66 21.90Q24.66 18.35 26.15 15.59Q27.65 12.83 30.29 11.29Q32.94 9.75 36.52 9.75L36.52 9.75Q39.88 9.75 42.46 11.22Q45.03 12.70 46.48 15.25Q47.93 17.80 47.93 20.93L47.93 20.93Q47.93 21.44 47.91 21.99Q47.89 22.54 47.84 23.14L47.84 23.14L30.50 23.14Q30.68 25.81 32.36 27.32Q34.04 28.84 36.43 28.84L36.43 28.84Q38.23 28.84 39.44 28.04Q40.66 27.23 41.26 25.94L41.26 25.94L47.24 25.94Q46.60 28.11 45.10 29.88Q43.61 31.65 41.42 32.66Q39.24 33.67 36.48 33.67ZM36.52 14.54L36.52 14.54Q34.36 14.54 32.71 15.75Q31.05 16.97 30.59 19.46L30.59 19.46L41.95 19.46Q41.81 17.20 40.30 15.87Q38.78 14.54 36.52 14.54ZM64.08 33.67L64.08 33.67Q60.58 33.67 57.91 32.15Q55.25 30.64 53.70 27.92Q52.16 25.21 52.16 21.71L52.16 21.71Q52.16 18.22 53.70 15.50Q55.25 12.79 57.91 11.27Q60.58 9.75 64.08 9.75L64.08 9.75Q68.45 9.75 71.44 12.03Q74.43 14.31 75.26 18.31L75.26 18.31L69.05 18.31Q68.59 16.65 67.23 15.71Q65.87 14.77 64.03 14.77L64.03 14.77Q61.59 14.77 59.89 16.61Q58.19 18.45 58.19 21.71L58.19 21.71Q58.19 24.98 59.89 26.82Q61.59 28.66 64.03 28.66L64.03 28.66Q65.87 28.66 67.23 27.74Q68.59 26.82 69.05 25.12L69.05 25.12L75.26 25.12Q74.43 28.98 71.44 31.33Q68.45 33.67 64.08 33.67ZM83.67 6.76L83.67 6.76Q82.06 6.76 81.03 5.80Q79.99 4.83 79.99 3.36L79.99 3.36Q79.99 1.89 81.03 0.94Q82.06 0 83.67 0L83.67 0Q85.28 0 86.32 0.94Q87.35 1.89 87.35 3.36L87.35 3.36Q87.35 4.83 86.32 5.80Q85.28 6.76 83.67 6.76ZM86.62 33.12L80.73 33.12L80.73 10.30L86.62 10.30L86.62 33.12ZM98.67 33.12L92.78 33.12L92.78 10.30L97.98 10.30L98.49 13.39Q99.59 11.73 101.41 10.74Q103.22 9.75 105.62 9.75L105.62 9.75Q110.91 9.75 113.11 13.85L113.11 13.85Q114.36 11.96 116.45 10.86Q118.54 9.75 121.03 9.75L121.03 9.75Q125.49 9.75 127.88 12.42Q130.27 15.09 130.27 20.24L130.27 20.24L130.27 33.12L124.38 33.12L124.38 20.79Q124.38 17.85 123.26 16.28Q122.13 14.72 119.78 14.72L119.78 14.72Q117.39 14.72 115.94 16.47Q114.49 18.22 114.49 21.34L114.49 21.34L114.49 33.12L108.61 33.12L108.61 20.79Q108.61 17.85 107.46 16.28Q106.31 14.72 103.91 14.72L103.91 14.72Q101.57 14.72 100.12 16.47Q98.67 18.22 98.67 21.34L98.67 21.34L98.67 33.12ZM138.41 33.44L138.41 33.44Q136.80 33.44 135.77 32.43Q134.73 31.42 134.73 29.99L134.73 29.99Q134.73 28.52 135.77 27.51Q136.80 26.50 138.41 26.50L138.41 26.50Q140.02 26.50 141.06 27.51Q142.09 28.52 142.09 29.99L142.09 29.99Q142.09 31.42 141.06 32.43Q140.02 33.44 138.41 33.44ZM152.81 33.12L146.92 33.12L146.92 10.30L152.12 10.30L152.63 13.39Q153.73 11.73 155.55 10.74Q157.37 9.75 159.76 9.75L159.76 9.75Q165.05 9.75 167.26 13.85L167.26 13.85Q168.50 11.96 170.59 10.86Q172.68 9.75 175.17 9.75L175.17 9.75Q179.63 9.75 182.02 12.42Q184.41 15.09 184.41 20.24L184.41 20.24L184.41 33.12L178.53 33.12L178.53 20.79Q178.53 17.85 177.40 16.28Q176.27 14.72 173.93 14.72L173.93 14.72Q171.53 14.72 170.08 16.47Q168.64 18.22 168.64 21.34L168.64 21.34L168.64 33.12L162.75 33.12L162.75 20.79Q162.75 17.85 161.60 16.28Q160.45 14.72 158.06 14.72L158.06 14.72Q155.71 14.72 154.26 16.47Q152.81 18.22 152.81 21.34L152.81 21.34L152.81 33.12ZM201.11 33.67L201.11 33.67Q197.66 33.67 194.99 32.20Q192.33 30.73 190.81 28.06Q189.29 25.39 189.29 21.90L189.29 21.90Q189.29 18.35 190.78 15.59Q192.28 12.83 194.92 11.29Q197.57 9.75 201.16 9.75L201.16 9.75Q204.52 9.75 207.09 11.22Q209.67 12.70 211.12 15.25Q212.57 17.80 212.57 20.93L212.57 20.93Q212.57 21.44 212.54 21.99Q212.52 22.54 212.47 23.14L212.47 23.14L195.13 23.14Q195.32 25.81 196.99 27.32Q198.67 28.84 201.07 28.84L201.07 28.84Q202.86 28.84 204.08 28.04Q205.30 27.23 205.90 25.94L205.90 25.94L211.88 25.94Q211.23 28.11 209.74 29.88Q208.24 31.65 206.06 32.66Q203.87 33.67 201.11 33.67ZM201.16 14.54L201.16 14.54Q199.00 14.54 197.34 15.75Q195.68 16.97 195.22 19.46L195.22 19.46L206.59 19.46Q206.45 17.20 204.93 15.87Q203.41 14.54 201.16 14.54Z"></path></g></svg><!----></svg>