<?xml version="1.0" encoding="UTF-8"?>
<svg id="Layer_2" data-name="Layer 2" xmlns="http://www.w3.org/2000/svg" width="92.95" height="131.44" xmlns:xlink="http://www.w3.org/1999/xlink" viewBox="0 0 92.95 131.44">
  <defs>
    <style>
      .cls-1 {
        fill: #fff;
      }

      .cls-2 {
        fill: #575756;
      }

      .cls-3 {
        fill: #e30613;
      }

      .cls-4 {
        clip-path: url(#clippath);
      }

      .cls-5 {
        fill: none;
      }
    </style>
    <clipPath id="clippath">
      <rect class="cls-5" x="0" y="0" width="92.95" height="131.44"/>
    </clipPath>
  </defs>
  <g id="Layer_1-2" data-name="Layer 1">
    <g>
      <polygon class="cls-2" points="53.55 104.51 53.55 113.6 45.06 113.6 45.06 104.51 36.07 104.51 36.07 131.44 45.06 131.44 45.06 120.99 53.55 120.99 53.55 131.44 62.54 131.44 62.54 104.51 53.55 104.51"/>
      <polygon class="cls-2" points="20.53 104.51 15.7 121.3 10.86 104.51 0 104.51 0 131.44 8.07 131.44 8.07 122.31 7.89 118.13 7.51 114.17 7.59 114.17 12.57 131.44 18.82 131.44 23.81 114.17 23.88 114.17 23.44 119.02 23.32 123.2 23.32 131.44 31.4 131.44 31.4 104.51 20.53 104.51"/>
      <g class="cls-4">
        <path class="cls-2" d="m79.94,116.78h-3.74v-5.99h2.57c3.2,0,4.8.95,4.8,2.85,0,2.09-1.21,3.14-3.63,3.14m6.99-11.17c-1.75-.74-3.91-1.1-6.49-1.1h-13.23v26.93h8.98v-8.38h4.54c3.82,0,6.67-.83,8.56-2.5,1.88-1.67,2.83-3.99,2.83-6.96,0-1.84-.43-3.44-1.28-4.82-.86-1.37-2.16-2.43-3.91-3.17"/>
        <path class="cls-3" d="m0,46.19C0,20.68,20.81,0,46.47,0s46.47,20.68,46.47,46.19-20.81,46.2-46.47,46.2S0,71.71,0,46.19"/>
      </g>
      <g>
        <path class="cls-1" d="m3.02,46.19C3.02,22.34,22.48,3.01,46.47,3.01s43.45,19.34,43.45,43.19-19.45,43.19-43.45,43.19S3.02,70.05,3.02,46.19m1.51,0c0,23.02,18.78,41.69,41.94,41.69s41.94-18.67,41.94-41.69S69.64,4.51,46.47,4.51,4.53,23.17,4.53,46.19"/>
        <path class="cls-1" d="m52.89,46.16c0-8.41,6.85-15.22,15.31-15.22,5.48,0,10.3,2.87,13,7.18-2.23-2.49-5.47-4.05-9.08-4.05-6.72,0-12.17,5.41-12.17,12.09s5.45,12.09,12.17,12.09c3.61,0,6.86-1.57,9.08-4.05-2.7,4.31-7.52,7.18-13,7.18-8.46,0-15.31-6.81-15.31-15.22"/>
        <path class="cls-1" d="m21.26,64.41c0-8.41,6.85-15.22,15.31-15.22,5.48,0,10.3,2.87,13,7.18-2.23-2.49-5.47-4.05-9.08-4.05-6.72,0-12.16,5.42-12.16,12.09s5.45,12.09,12.16,12.09c3.61,0,6.86-1.56,9.08-4.05-2.7,4.31-7.52,7.18-13,7.18-8.46,0-15.31-6.81-15.31-15.22"/>
        <path class="cls-1" d="m21.26,27.91c0-8.41,6.85-15.22,15.31-15.22,5.48,0,10.3,2.87,13,7.18-2.23-2.48-5.47-4.05-9.08-4.05-6.72,0-12.16,5.41-12.16,12.09s5.45,12.09,12.16,12.09c3.61,0,6.86-1.56,9.08-4.05-2.7,4.31-7.52,7.18-13,7.18-8.46,0-15.31-6.81-15.31-15.22"/>
      </g>
    </g>
  </g>
</svg>