<?xml version="1.0" encoding="utf-8"?>
<!-- Generator: Adobe Illustrator 26.4.1, SVG Export Plug-In . SVG Version: 6.00 Build 0)  -->
<svg version="1.0" id="katman_1" xmlns="http://www.w3.org/2000/svg" xmlns:xlink="http://www.w3.org/1999/xlink" x="0px" y="0px"
	 viewBox="0 0 600 470" style="enable-background:new 0 0 600 470;" xml:space="preserve">
<style type="text/css">
	.st0{clip-path:url(#SVGID_00000078011637740281239220000005985049574377781917_);fill:#3A8C38;}
	.st1{clip-path:url(#SVGID_00000078011637740281239220000005985049574377781917_);fill:#F9B000;}
	.st2{clip-path:url(#SVGID_00000078011637740281239220000005985049574377781917_);fill:#823F91;}
</style>
<g>
	<defs>
		<rect id="SVGID_1_" x="163.48" y="51.29" width="272.19" height="367.71"/>
	</defs>
	<clipPath id="SVGID_00000044883513073069363930000001533765134087610525_">
		<use xlink:href="#SVGID_1_"  style="overflow:visible;"/>
	</clipPath>
	<path style="clip-path:url(#SVGID_00000044883513073069363930000001533765134087610525_);fill:#3A8C38;" d="M225.42,371.24
		c-0.12-0.13-0.18-0.29-0.18-0.49v-8.68c0-0.08-0.02-0.19-0.07-0.34L218,345.76l-0.07-0.3c0-0.33,0.19-0.49,0.57-0.49h5.03
		c0.36,0,0.61,0.18,0.75,0.53l3.74,9.29c0.05,0.1,0.11,0.15,0.2,0.15c0.09,0,0.14-0.05,0.16-0.15l3.78-9.29
		c0.14-0.35,0.39-0.53,0.75-0.53h5.06c0.17,0,0.3,0.05,0.41,0.13c0.11,0.09,0.16,0.2,0.16,0.32c0,0.15-0.02,0.27-0.07,0.34
		l-7.27,15.96c-0.05,0.15-0.07,0.27-0.07,0.34v8.68c0,0.2-0.06,0.37-0.18,0.49c-0.12,0.13-0.27,0.19-0.46,0.19h-4.6
		C225.69,371.43,225.54,371.37,225.42,371.24"/>
	<path style="clip-path:url(#SVGID_00000044883513073069363930000001533765134087610525_);fill:#3A8C38;" d="M258.72,350.16
		c-0.12,0.13-0.27,0.19-0.46,0.19h-10.91c-0.17,0-0.25,0.09-0.25,0.27v4.51c0,0.18,0.08,0.27,0.25,0.27h6.88
		c0.19,0,0.34,0.06,0.46,0.19c0.12,0.13,0.18,0.29,0.18,0.49v3.98c0,0.2-0.06,0.36-0.18,0.49c-0.12,0.13-0.27,0.19-0.46,0.19h-6.88
		c-0.17,0-0.25,0.09-0.25,0.26v4.85c0,0.18,0.08,0.27,0.25,0.27h10.91c0.19,0,0.34,0.06,0.46,0.19c0.12,0.13,0.18,0.29,0.18,0.49
		v4.02c0,0.2-0.06,0.37-0.18,0.49c-0.12,0.13-0.27,0.19-0.46,0.19h-16.44c-0.19,0-0.35-0.06-0.46-0.19
		c-0.12-0.13-0.18-0.29-0.18-0.49v-25.18c0-0.2,0.06-0.37,0.18-0.49c0.12-0.13,0.27-0.19,0.46-0.19h16.44
		c0.19,0,0.34,0.06,0.46,0.19c0.12,0.13,0.18,0.29,0.18,0.49v4.02C258.9,349.87,258.84,350.03,258.72,350.16"/>
	<path style="clip-path:url(#SVGID_00000044883513073069363930000001533765134087610525_);fill:#3A8C38;" d="M278.21,368.94
		c-1.25,1.38-2.96,2.26-5.12,2.64c-0.09,0.02-0.16,0.07-0.18,0.13c-0.02,0.06,0.01,0.13,0.11,0.21c0.93,1.04,1.39,2.09,1.39,3.15
		c0,0.35-0.05,0.68-0.14,0.99c-0.24,0.88-0.66,1.52-1.28,1.9c-0.62,0.38-1.34,0.57-2.17,0.57c-0.81,0-1.58-0.14-2.32-0.42
		c-0.33-0.1-0.48-0.38-0.43-0.84l0.21-1.86c0.07-0.33,0.24-0.49,0.5-0.49c0.12,0,0.21,0.01,0.29,0.04c0.24,0.05,0.39,0.08,0.46,0.08
		c0.52,0,0.85-0.24,1-0.72c0.21-0.66-0.27-1.49-1.46-2.5c-0.09-0.08-0.2-0.13-0.32-0.15c-2.33-0.3-4.18-1.18-5.54-2.62
		c-1.37-1.44-2.05-3.26-2.05-5.46v-0.49c0-0.2,0.06-0.37,0.18-0.49c0.12-0.13,0.27-0.19,0.46-0.19h4.53c0.19,0,0.34,0.04,0.46,0.13
		c0.12,0.09,0.18,0.19,0.18,0.32v0.45c0,0.81,0.39,1.53,1.16,2.16c0.77,0.63,1.76,0.95,2.98,0.95c1.05,0,1.82-0.24,2.32-0.72
		c0.5-0.48,0.75-1.03,0.75-1.67c0-0.71-0.29-1.25-0.87-1.63c-0.58-0.38-1.62-0.82-3.12-1.33l-0.78-0.27
		c-1.52-0.53-2.85-1.11-3.99-1.73c-1.14-0.62-2.11-1.48-2.92-2.58c-0.81-1.1-1.21-2.46-1.21-4.08c0-1.57,0.39-2.94,1.16-4.11
		c0.77-1.18,1.84-2.08,3.21-2.71c1.37-0.63,2.92-0.95,4.65-0.95c1.83,0,3.48,0.35,4.94,1.06c1.46,0.71,2.61,1.71,3.44,3
		c0.83,1.29,1.25,2.77,1.25,4.44v0.3c0,0.2-0.06,0.37-0.18,0.49c-0.12,0.13-0.27,0.19-0.46,0.19h-4.53c-0.19,0-0.34-0.03-0.46-0.09
		c-0.12-0.06-0.18-0.16-0.18-0.29v-0.34c0-0.88-0.37-1.67-1.11-2.35c-0.74-0.68-1.72-1.02-2.96-1.02c-0.93,0-1.65,0.2-2.17,0.61
		c-0.52,0.4-0.79,0.97-0.79,1.71c0,0.56,0.17,1.02,0.5,1.38c0.33,0.37,0.85,0.71,1.55,1.02c0.7,0.32,1.78,0.73,3.23,1.23
		c1.66,0.61,2.96,1.14,3.89,1.59c0.93,0.46,1.8,1.2,2.62,2.22c0.82,1.03,1.23,2.37,1.23,4.04
		C280.08,365.87,279.46,367.57,278.21,368.94"/>
	<path style="clip-path:url(#SVGID_00000044883513073069363930000001533765134087610525_);fill:#3A8C38;" d="M283.15,371.31
		c-0.12-0.13-0.18-0.29-0.18-0.49v-25.18c0-0.2,0.06-0.36,0.18-0.49c0.12-0.13,0.27-0.19,0.46-0.19h4.64c0.19,0,0.34,0.06,0.46,0.19
		c0.12,0.13,0.18,0.29,0.18,0.49v25.18c0,0.2-0.06,0.37-0.18,0.49c-0.12,0.13-0.27,0.19-0.46,0.19h-4.64
		C283.42,371.5,283.27,371.44,283.15,371.31 M284.08,342.17c-0.48-0.52-0.71-1.18-0.71-1.99c0-0.83,0.24-1.5,0.71-1.99
		c0.48-0.49,1.09-0.74,1.86-0.74c0.76,0,1.37,0.25,1.84,0.74c0.46,0.49,0.7,1.16,0.7,1.99c0,0.81-0.23,1.47-0.7,1.99
		c-0.46,0.52-1.08,0.78-1.84,0.78C285.17,342.95,284.55,342.69,284.08,342.17"/>
	<path style="clip-path:url(#SVGID_00000044883513073069363930000001533765134087610525_);fill:#3A8C38;" d="M292.6,371.31
		c-0.12-0.13-0.18-0.29-0.18-0.49v-25.18c0-0.2,0.06-0.37,0.18-0.49c0.12-0.13,0.27-0.19,0.46-0.19h4.64c0.19,0,0.34,0.06,0.46,0.19
		c0.12,0.13,0.18,0.29,0.18,0.49v20.21c0,0.18,0.08,0.27,0.25,0.27h11.09c0.19,0,0.35,0.06,0.47,0.19c0.12,0.13,0.18,0.29,0.18,0.49
		v4.02c0,0.2-0.06,0.37-0.18,0.49c-0.12,0.13-0.27,0.19-0.47,0.19h-16.62C292.87,371.5,292.72,371.44,292.6,371.31"/>
	<path style="clip-path:url(#SVGID_00000044883513073069363930000001533765134087610525_);fill:#3A8C38;" d="M323.89,370.8
		c-1.44-0.67-2.55-1.63-3.33-2.88c-0.78-1.25-1.18-2.7-1.18-4.34v-0.49c0-0.2,0.06-0.37,0.18-0.49c0.12-0.13,0.27-0.19,0.46-0.19
		h4.53c0.19,0,0.34,0.04,0.46,0.13c0.12,0.09,0.18,0.2,0.18,0.32v0.45c0,0.81,0.39,1.53,1.16,2.16c0.77,0.63,1.76,0.95,2.98,0.95
		c1.05,0,1.82-0.24,2.32-0.72c0.5-0.48,0.75-1.04,0.75-1.67c0-0.71-0.29-1.25-0.87-1.63c-0.58-0.38-1.62-0.82-3.12-1.33l-0.78-0.27
		c-1.52-0.53-2.85-1.11-3.99-1.72c-1.14-0.62-2.12-1.48-2.93-2.58c-0.81-1.1-1.21-2.46-1.21-4.08c0-1.57,0.39-2.94,1.16-4.11
		c0.77-1.18,1.84-2.08,3.21-2.71c1.37-0.63,2.92-0.95,4.65-0.95c1.83,0,3.48,0.35,4.94,1.06c1.46,0.71,2.61,1.71,3.44,3
		c0.83,1.29,1.25,2.77,1.25,4.44v0.3c0,0.2-0.06,0.37-0.18,0.49c-0.12,0.13-0.27,0.19-0.46,0.19h-4.53c-0.19,0-0.34-0.03-0.46-0.09
		c-0.12-0.06-0.18-0.16-0.18-0.29v-0.34c0-0.88-0.37-1.67-1.11-2.35c-0.74-0.68-1.72-1.02-2.96-1.02c-0.93,0-1.65,0.2-2.17,0.61
		c-0.52,0.4-0.78,0.97-0.78,1.71c0,0.56,0.17,1.02,0.5,1.38c0.33,0.37,0.85,0.71,1.55,1.03c0.7,0.32,1.78,0.73,3.23,1.23
		c1.66,0.61,2.96,1.14,3.89,1.59c0.93,0.45,1.8,1.2,2.62,2.22c0.82,1.02,1.23,2.37,1.23,4.04c0,1.59-0.39,2.99-1.18,4.19
		c-0.78,1.2-1.89,2.13-3.32,2.79c-1.43,0.66-3.07,0.99-4.92,0.99C327,371.81,325.33,371.47,323.89,370.8"/>
	<path style="clip-path:url(#SVGID_00000044883513073069363930000001533765134087610525_);fill:#3A8C38;" d="M345.42,370.69
		c-1.46-0.82-2.6-1.98-3.41-3.47c-0.81-1.49-1.21-3.22-1.21-5.19v-7.58c0-1.92,0.41-3.62,1.21-5.1c0.81-1.48,1.94-2.63,3.41-3.45
		c1.46-0.82,3.16-1.23,5.08-1.23c1.93,0,3.63,0.41,5.1,1.23c1.47,0.82,2.61,1.97,3.42,3.45c0.81,1.48,1.21,3.18,1.21,5.1v7.58
		c0,1.97-0.4,3.7-1.21,5.19c-0.81,1.49-1.95,2.65-3.42,3.47c-1.47,0.82-3.17,1.23-5.1,1.23
		C348.58,371.92,346.89,371.51,345.42,370.69 M353.27,365.36c0.7-0.78,1.05-1.83,1.05-3.15v-7.85c0-1.29-0.35-2.33-1.05-3.13
		c-0.7-0.8-1.62-1.19-2.76-1.19c-1.12,0-2.03,0.4-2.73,1.19c-0.7,0.8-1.05,1.84-1.05,3.13v7.85c0,1.31,0.35,2.36,1.05,3.15
		c0.7,0.78,1.61,1.18,2.73,1.18C351.65,366.54,352.57,366.14,353.27,365.36"/>
	<path style="clip-path:url(#SVGID_00000044883513073069363930000001533765134087610525_);fill:#3A8C38;" d="M363.52,371.31
		c-0.12-0.13-0.18-0.29-0.18-0.49v-25.18c0-0.2,0.06-0.37,0.18-0.49c0.12-0.13,0.27-0.19,0.46-0.19h4.64c0.19,0,0.34,0.06,0.46,0.19
		c0.12,0.13,0.18,0.29,0.18,0.49v20.21c0,0.18,0.08,0.27,0.25,0.27h11.09c0.19,0,0.34,0.06,0.46,0.19c0.12,0.13,0.18,0.29,0.18,0.49
		v4.02c0,0.2-0.06,0.37-0.18,0.49c-0.12,0.13-0.27,0.19-0.46,0.19h-16.62C363.79,371.5,363.64,371.44,363.52,371.31"/>
	<path style="clip-path:url(#SVGID_00000044883513073069363930000001533765134087610525_);fill:#3A8C38;" d="M268.35,393.52
		c1.25,0.71,2.21,1.7,2.89,2.98c0.68,1.28,1.02,2.75,1.02,4.42c0,1.64-0.35,3.1-1.05,4.36c-0.7,1.27-1.69,2.24-2.98,2.92
		c-1.28,0.68-2.77,1.02-4.46,1.02h-4.28c-0.17,0-0.25,0.09-0.25,0.27v8.84c0,0.2-0.06,0.37-0.18,0.49
		c-0.12,0.13-0.27,0.19-0.46,0.19h-4.64c-0.19,0-0.34-0.06-0.46-0.19c-0.12-0.12-0.18-0.29-0.18-0.49v-25.18
		c0-0.2,0.06-0.36,0.18-0.49c0.12-0.13,0.27-0.19,0.46-0.19h10.09C265.67,392.46,267.1,392.81,268.35,393.52 M265.46,403.34
		c0.61-0.58,0.91-1.34,0.91-2.27c0-0.96-0.3-1.74-0.91-2.33c-0.61-0.59-1.4-0.89-2.37-0.89h-3.6c-0.17,0-0.25,0.09-0.25,0.27v5.84
		c0,0.18,0.08,0.26,0.25,0.26h3.6C264.07,404.21,264.86,403.92,265.46,403.34"/>
	<path style="clip-path:url(#SVGID_00000044883513073069363930000001533765134087610525_);fill:#3A8C38;" d="M288.09,418.43
		l-0.82-3.11c-0.02-0.15-0.12-0.23-0.28-0.23h-8.06c-0.14,0-0.24,0.08-0.29,0.23l-0.82,3.11c-0.1,0.38-0.33,0.57-0.71,0.57h-5.03
		c-0.24,0-0.41-0.07-0.5-0.21c-0.1-0.14-0.11-0.32-0.04-0.55l7.49-25.22c0.12-0.38,0.37-0.57,0.75-0.57h6.31
		c0.4,0,0.65,0.19,0.75,0.57l7.52,25.22c0.02,0.05,0.04,0.14,0.04,0.27c0,0.33-0.19,0.49-0.57,0.49h-5.03
		C288.42,419,288.18,418.81,288.09,418.43 M280.1,410.01c0,0.15,0.07,0.23,0.21,0.23h5.28c0.1,0,0.16-0.03,0.2-0.09
		c0.04-0.06,0.04-0.13,0.02-0.21l-2.71-10.09c-0.02-0.13-0.06-0.19-0.12-0.19c-0.06,0-0.11,0.06-0.16,0.19l-2.71,10.09V410.01z"/>
	<path style="clip-path:url(#SVGID_00000044883513073069363930000001533765134087610525_);fill:#3A8C38;" d="M309.87,418.47
		l-4.14-9.86c-0.05-0.13-0.14-0.19-0.28-0.19h-2.21c-0.17,0-0.25,0.09-0.25,0.27v9.63c0,0.2-0.06,0.37-0.18,0.49
		c-0.12,0.13-0.27,0.19-0.46,0.19h-4.64c-0.19,0-0.34-0.06-0.46-0.19c-0.12-0.13-0.18-0.29-0.18-0.49v-25.18
		c0-0.2,0.06-0.36,0.18-0.49c0.12-0.13,0.27-0.19,0.46-0.19h10.38c1.57,0,2.95,0.34,4.14,1.02c1.19,0.68,2.11,1.65,2.77,2.9
		c0.65,1.25,0.98,2.69,0.98,4.3c0,1.67-0.39,3.12-1.16,4.36c-0.77,1.24-1.85,2.14-3.23,2.69c-0.17,0.08-0.21,0.2-0.14,0.38
		l4.56,10.09l0.07,0.3c0,0.33-0.19,0.49-0.57,0.49h-4.89C310.27,419,310.02,418.82,309.87,418.47 M302.99,398.11v5.23
		c0,0.18,0.08,0.27,0.25,0.27h3.89c0.88,0,1.59-0.26,2.14-0.78c0.55-0.52,0.82-1.21,0.82-2.07c0-0.88-0.27-1.59-0.82-2.12
		c-0.55-0.53-1.26-0.8-2.14-0.8h-3.89C303.08,397.84,302.99,397.93,302.99,398.11"/>
	<path style="clip-path:url(#SVGID_00000044883513073069363930000001533765134087610525_);fill:#3A8C38;" d="M337.19,392.65
		c0.12,0.13,0.18,0.29,0.18,0.49v4.06c0,0.2-0.06,0.37-0.18,0.49c-0.12,0.13-0.27,0.19-0.46,0.19h-5.95c-0.17,0-0.25,0.09-0.25,0.27
		v20.17c0,0.2-0.06,0.37-0.18,0.49c-0.12,0.13-0.27,0.19-0.46,0.19h-4.64c-0.19,0-0.34-0.06-0.46-0.19
		c-0.12-0.13-0.18-0.29-0.18-0.49v-20.17c0-0.18-0.08-0.27-0.25-0.27h-5.74c-0.19,0-0.35-0.06-0.46-0.19
		c-0.12-0.13-0.18-0.29-0.18-0.49v-4.06c0-0.2,0.06-0.37,0.18-0.49c0.12-0.13,0.27-0.19,0.46-0.19h18.11
		C336.91,392.46,337.07,392.52,337.19,392.65"/>
	<path style="clip-path:url(#SVGID_00000044883513073069363930000001533765134087610525_);fill:#3A8C38;" d="M340.11,418.81
		c-0.12-0.13-0.18-0.29-0.18-0.49v-25.18c0-0.2,0.06-0.36,0.18-0.49c0.12-0.13,0.27-0.19,0.46-0.19h4.64c0.19,0,0.34,0.06,0.46,0.19
		c0.12,0.13,0.18,0.29,0.18,0.49v25.18c0,0.2-0.06,0.37-0.18,0.49c-0.12,0.13-0.27,0.19-0.46,0.19h-4.64
		C340.38,419,340.23,418.94,340.11,418.81 M341.04,389.67c-0.48-0.52-0.71-1.18-0.71-1.99c0-0.83,0.24-1.5,0.71-1.99
		c0.48-0.49,1.09-0.74,1.86-0.74c0.76,0,1.37,0.25,1.84,0.74c0.46,0.49,0.69,1.16,0.69,1.99c0,0.81-0.23,1.47-0.69,1.99
		c-0.46,0.52-1.08,0.78-1.84,0.78C342.13,390.45,341.51,390.19,341.04,389.67"/>
	<path style="clip-path:url(#SVGID_00000044883513073069363930000001533765134087610525_);fill:#F9B000;" d="M292.94,127.31
		c11.97-3.85,25.86,4.63,27.71,16.94c2.56,11.88-6.87,24.45-19.07,25.43c-11.57,1.65-23.17-7.48-24.23-18.97
		C275.91,140.49,282.9,130.01,292.94,127.31"/>
	<path style="clip-path:url(#SVGID_00000044883513073069363930000001533765134087610525_);fill:#823F91;" d="M349.71,139.18
		c0.42,17.26-3.53,34.55-10.34,50.41c-4.63,10.65-10.53,20.71-16.73,30.53c-2.38-3.78-4.73-7.56-7.09-11.34
		C331.24,188.11,345.65,165.16,349.71,139.18"/>
	<path style="clip-path:url(#SVGID_00000044883513073069363930000001533765134087610525_);fill:#823F91;" d="M249.39,141.69
		c5.1,17.95,12.62,35.21,22.79,50.91c10.91,17.64,25.1,33.36,33.58,52.43c6.26,13.9,7.58,29.65,4.86,44.56
		c-2.05,11.69-5.99,22.99-10.66,33.88c6.57-34.7,0.49-72.69-21.31-101.23C260.24,199.47,252.09,170.32,249.39,141.69"/>
	<path style="clip-path:url(#SVGID_00000044883513073069363930000001533765134087610525_);fill:#823F91;" d="M303.42,221.37
		c-9.87-13.43-24.84-24.54-27.4-41.99c3.54,9.94,11.52,17.29,18.87,24.54c10.14,9.75,20.14,20.3,25.4,33.54
		c5.59,13.49,5.75,28.54,3.2,42.74C321.53,259.45,316.32,238.24,303.42,221.37"/>
	<path style="clip-path:url(#SVGID_00000044883513073069363930000001533765134087610525_);fill:#823F91;" d="M276.41,240.27
		c11.37,13.9,15.68,32.23,15.1,49.84c-0.24,8.05-0.98,16.13-2.64,24.01c-1.89,2.72-4.98,4.42-7.37,6.68
		c3.12-19.79,6.24-40.2,1.97-60.06C281.99,253.66,279.28,246.91,276.41,240.27"/>
	<path style="clip-path:url(#SVGID_00000044883513073069363930000001533765134087610525_);fill:#3A8C38;" d="M300.29,51.29
		c-13.06,9.24-31.33,48.52,0,60.93C329.28,96.33,310.72,65.43,300.29,51.29"/>
	<path style="clip-path:url(#SVGID_00000044883513073069363930000001533765134087610525_);fill:#3A8C38;" d="M202.78,220.12
		c7.68-6.53,19.44-9.12,14.73-24.77C201.32,195.16,200.79,212.23,202.78,220.12"/>
	<path style="clip-path:url(#SVGID_00000044883513073069363930000001533765134087610525_);fill:#3A8C38;" d="M166.5,159.48
		c7.5,2.05,16.55,0.04,18.43,12.47C173.72,177.35,167.72,165.62,166.5,159.48"/>
	<path style="clip-path:url(#SVGID_00000044883513073069363930000001533765134087610525_);fill:#3A8C38;" d="M183.14,143.82
		c3.32,11.98,27.45,35.87,45.1,16.46C224.32,134.92,196.43,140.06,183.14,143.82"/>
	<path style="clip-path:url(#SVGID_00000044883513073069363930000001533765134087610525_);fill:#3A8C38;" d="M163.48,187.33
		c5.88,8.07,30.74,19.28,38.48-0.18C191.85,169.22,172.39,180.82,163.48,187.33"/>
	<path style="clip-path:url(#SVGID_00000044883513073069363930000001533765134087610525_);fill:#3A8C38;" d="M214.39,81.36
		c-4.55,15.25,5.46,57.34,37.85,48.02C265.23,99.18,231.41,86.15,214.39,81.36"/>
	<path style="clip-path:url(#SVGID_00000044883513073069363930000001533765134087610525_);fill:#3A8C38;" d="M246.55,62.05
		c16.77,1.3,33.21,17.01,21.62,33.16C245.23,85.93,255.09,72.52,246.55,62.05"/>
	<path style="clip-path:url(#SVGID_00000044883513073069363930000001533765134087610525_);fill:#3A8C38;" d="M185.07,113.76
		c6.05-3.32,29.17-5.19,27.29,14.31C191.32,132.01,192.57,118.12,185.07,113.76"/>
	<path style="clip-path:url(#SVGID_00000044883513073069363930000001533765134087610525_);fill:#3A8C38;" d="M396.37,220.12
		c-7.68-6.53-19.44-9.12-14.73-24.77C397.83,195.16,398.36,212.23,396.37,220.12"/>
	<path style="clip-path:url(#SVGID_00000044883513073069363930000001533765134087610525_);fill:#3A8C38;" d="M432.64,159.48
		c-7.5,2.05-16.55,0.04-18.43,12.47C425.43,177.35,431.42,165.62,432.64,159.48"/>
	<path style="clip-path:url(#SVGID_00000044883513073069363930000001533765134087610525_);fill:#3A8C38;" d="M416.01,143.82
		c-3.32,11.98-27.45,35.87-45.1,16.46C374.83,134.92,402.71,140.06,416.01,143.82"/>
	<path style="clip-path:url(#SVGID_00000044883513073069363930000001533765134087610525_);fill:#3A8C38;" d="M435.66,187.33
		c-5.88,8.07-30.74,19.28-38.48-0.18C407.3,169.22,426.76,180.82,435.66,187.33"/>
	<path style="clip-path:url(#SVGID_00000044883513073069363930000001533765134087610525_);fill:#3A8C38;" d="M384.75,81.36
		c4.55,15.25-5.46,57.34-37.85,48.02C333.91,99.18,367.73,86.15,384.75,81.36"/>
	<path style="clip-path:url(#SVGID_00000044883513073069363930000001533765134087610525_);fill:#3A8C38;" d="M352.6,62.05
		c-16.77,1.3-33.21,17.01-21.62,33.16C353.91,85.93,344.05,72.52,352.6,62.05"/>
	<path style="clip-path:url(#SVGID_00000044883513073069363930000001533765134087610525_);fill:#3A8C38;" d="M414.08,113.76
		c-6.05-3.32-29.17-5.19-27.29,14.31C407.83,132.01,406.57,118.12,414.08,113.76"/>
</g>
</svg>
